<?xml version="1.0" encoding="iso-8859-1"?>
<!-- Generator: Adobe Illustrator 19.0.0, SVG Export Plug-In . SVG Version: 6.00 Build 0)  -->
<svg version="1.1" id="Layer_1" xmlns="http://www.w3.org/2000/svg" xmlns:xlink="http://www.w3.org/1999/xlink" x="0px" y="0px"
	 viewBox="0 0 512.004 512.004" style="enable-background:new 0 0 512.004 512.004;" xml:space="preserve">
<path style="fill:#FBCB99;" d="M382.198,139.788v110.326H371.85v39.966c0,28.751-17.329,53.514-42.082,64.443v152.261H182.233
	V358.166c-30.149-7.975-52.431-35.476-52.431-68.086V168.253h27.806v-49.162h54.981v-10.348h71.946v10.348h51.742v20.697H382.198z"
	/>
<g>
	<rect x="136.546" y="175.52" style="fill:#EAA96E;" width="116.096" height="14.618"/>
	<rect x="276.756" y="123.227" style="fill:#EAA96E;" width="53.524" height="13.728"/>
	<rect x="327.03" y="143.214" style="fill:#EAA96E;" width="53.524" height="13.728"/>
	<rect x="221.617" y="113.42" style="fill:#EAA96E;" width="53.524" height="13.728"/>
	<rect x="165.494" y="122.774" style="fill:#EAA96E;" width="53.524" height="13.728"/>
	<polygon style="fill:#EAA96E;" points="329.767,356.145 329.767,506.784 182.233,506.784 182.233,361.885 302.621,361.885 	"/>
</g>
<path style="fill:#FBCB99;" d="M329.767,382.948v123.835H219.953v-73.258c0-27.933,22.644-50.577,50.577-50.577H329.767z"/>
<path style="fill:#EAA96E;" d="M192.257,263.236c0,0,42.029,4.947,63.08,24.087c0,0,42.785-17.193,112.207-13.949v-24.979H219.293
	v-26.6H193.99L192.257,263.236z"/>
<g>
	<path style="fill:#FFD9B6;" d="M327.749,246.352h-28.338v-79.317c0-15.65,12.688-28.338,28.338-28.338l0,0V246.352z"/>
	<path style="fill:#FFD9B6;" d="M379.394,247.476V157.31c-15.65,0-28.338,12.688-28.338,28.338v61.828H379.394z"/>
	<path style="fill:#FFD9B6;" d="M270.873,130.088c-15.65,0-28.338,12.688-28.338,28.338v15.017h10.023v48.301h-10.023v33.216h32.87
		V130.088H270.873z"/>
	<path style="fill:#FFD9B6;" d="M215.282,175.521v-37.157h-4.532c-15.65,0-28.338,12.688-28.338,28.338v8.819H215.282z"/>
	<path style="fill:#FFD9B6;" d="M256,198.113h-70.066c-17.147,0-31.048,13.901-31.048,31.048v41.458h27.527l14.834-11.127v-36.709
		h59.987L256,198.113z"/>
</g>
<path d="M338.387,114.144h-53.099v-10.62h-73.841v10.62h-56.417v50.444h-28.541v125.025c0,33.469,22.873,61.688,53.805,69.871
	v152.519h151.415V355.75c25.403-11.216,43.184-36.633,43.184-66.139v-33.926h10.62V135.384h-47.126V114.144z M323.617,128.913v6.471
	v105.534h-38.33V128.913H323.617z M226.215,229.137h36.506v-64.549h-36.506v-46.295h44.303v122.624h-44.303V229.137z
	 M169.798,128.913h41.648v35.675h-41.648V128.913z M360.123,289.612c0,31.708-25.796,57.503-57.503,57.503v14.769
	c4.901,0,9.689-0.495,14.318-1.43v136.779H195.061V361.79c1.225,0.062,2.458,0.094,3.698,0.094h8.788v-7.385v-0.001v-7.384h-0.913
	h-7.875c-31.707,0-57.503-25.796-57.503-57.503V179.357h13.772h71.187h21.736v35.011h-59.073v41.91
	c-2.505-0.181-4.732-0.292-6.591-0.356l-0.508,14.76c4.002,0.138,9.421,0.475,15.559,1.25c9.974,1.26,21.856,3.682,32.686,8.312
	c20.278,8.667,30.135,21.887,30.135,40.417h14.769c0-11.984-3.13-21.748-8.265-29.717c15.711-5.421,32.435-6.834,42.007-7.163
	l-0.508-14.76c-11.584,0.399-32.761,2.273-51.919,10.068c-14.842-12.749-35.816-18.529-52.596-21.136v-28.816h7.798v26.549h59.072
	h14.769h38.33h14.769h21.736L360.123,289.612L360.123,289.612z M370.743,150.153v90.765h-32.356v-90.765H370.743z"/>
<rect x="275.141" y="347.118" width="15.051" height="14.769"/>
<rect x="154.89" y="255.854" width="15.471" height="14.769"/>
<rect x="247.956" y="398.604" width="14.769" height="66.881"/>
<rect x="248.615" y="0.002" width="14.769" height="58.964"/>
<rect x="451.092" y="244.718" width="60.912" height="14.769"/>
<rect y="244.718" width="58.722" height="14.769"/>
<rect x="406.219" y="65.261" transform="matrix(-0.7071 -0.7071 0.7071 -0.7071 639.2398 453.7897)" width="14.768" height="58.486"/>
<rect x="90.924" y="380.655" transform="matrix(0.7071 0.7071 -0.7071 0.7071 318.5478 50.5061)" width="14.768" height="58.239"/>
<rect x="383.32" y="401.887" transform="matrix(0.7071 0.7071 -0.7071 0.7071 410.4112 -172.2783)" width="59.687" height="14.768"/>
<rect x="69.373" y="86.625" transform="matrix(-0.7071 -0.7071 0.7071 -0.7071 100.6398 229.7037)" width="57.04" height="14.768"/>
<path d="M351.704,48.79c3.77-8.271,7.669-16.824,11.064-25.445l-13.742-5.412c-3.253,8.261-7.071,16.634-10.762,24.732
	c-4.347,9.537-8.842,19.398-12.644,29.514l13.825,5.196C343.071,67.73,347.459,58.101,351.704,48.79z"/>
<path d="M433.524,320.681l-5.768,13.596c10.088,4.28,20.206,8.679,29.992,12.934c8.741,3.801,17.781,7.731,26.823,11.587
	l5.794-13.586c-8.995-3.836-18.011-7.755-26.728-11.547C453.823,329.399,443.674,324.987,433.524,320.681z"/>
<path d="M75.373,182.195l6.144-13.431c-9.05-4.139-18.614-8.162-27.864-12.053c-8.581-3.61-17.455-7.342-26.088-11.233
	l-6.069,13.465c8.804,3.968,17.765,7.737,26.432,11.382C57.496,174.35,66.531,178.151,75.373,182.195z"/>
<path d="M437.481,187.994c12.348-4.746,24.303-9.545,35.864-14.187c6.475-2.599,12.994-5.217,19.686-7.869l-5.44-13.73
	c-6.714,2.66-13.254,5.286-19.749,7.895c-12.041,4.834-23.413,9.4-35.659,14.107L437.481,187.994z"/>
<path d="M73.082,316.796c-8.718,3.155-17.056,6.67-25.119,10.07c-9.205,3.88-18.722,7.894-28.663,11.291l4.776,13.976
	c10.428-3.564,20.187-7.679,29.625-11.658c7.889-3.326,16.046-6.766,24.405-9.79L73.082,316.796z"/>
<path d="M191.302,69.169c-9.151-20.752-15.735-37.332-21.351-53.761l-13.975,4.777c5.757,16.845,12.485,33.79,21.812,54.944
	L191.302,69.169z"/>
<g>
</g>
<g>
</g>
<g>
</g>
<g>
</g>
<g>
</g>
<g>
</g>
<g>
</g>
<g>
</g>
<g>
</g>
<g>
</g>
<g>
</g>
<g>
</g>
<g>
</g>
<g>
</g>
<g>
</g>
</svg>
